<mxfile host="app.diagrams.net" agent="Mozilla/5.0 (Windows NT 10.0; Win64; x64) AppleWebKit/537.36 (KHTML, like Gecko) Chrome/135.0.0.0 Safari/537.36" version="26.1.1">
  <diagram name="Page-1" id="6-F0O2mo-bmA5Y2_rc15">
    <mxGraphModel dx="2924" dy="1098" grid="1" gridSize="10" guides="1" tooltips="1" connect="1" arrows="1" fold="1" page="1" pageScale="1" pageWidth="850" pageHeight="1100" math="0" shadow="0">
      <root>
        <mxCell id="0" />
        <mxCell id="1" parent="0" />
        <mxCell id="g3oiN53RCh4N_Ikx8a8z-1" value="" style="rounded=1;whiteSpace=wrap;html=1;" vertex="1" parent="1">
          <mxGeometry x="90" y="310" width="300" height="400" as="geometry" />
        </mxCell>
        <mxCell id="g3oiN53RCh4N_Ikx8a8z-2" value="&lt;font style=&quot;font-size: 20px;&quot;&gt;SD Card Reader&lt;/font&gt;" style="rounded=1;whiteSpace=wrap;html=1;" vertex="1" parent="1">
          <mxGeometry x="250" y="470" width="120" height="100" as="geometry" />
        </mxCell>
        <mxCell id="g3oiN53RCh4N_Ikx8a8z-3" value="&lt;span style=&quot;font-size: 20px;&quot;&gt;IMU/GPS&lt;/span&gt;" style="rounded=1;whiteSpace=wrap;html=1;" vertex="1" parent="1">
          <mxGeometry x="110" y="590" width="120" height="100" as="geometry" />
        </mxCell>
        <mxCell id="g3oiN53RCh4N_Ikx8a8z-4" value="&lt;span style=&quot;font-size: 20px;&quot;&gt;CAN/RS-485 Connectivity&lt;/span&gt;" style="rounded=1;whiteSpace=wrap;html=1;" vertex="1" parent="1">
          <mxGeometry x="110" y="470" width="120" height="100" as="geometry" />
        </mxCell>
        <mxCell id="g3oiN53RCh4N_Ikx8a8z-5" value="&lt;span style=&quot;font-size: 20px;&quot;&gt;XBEE&amp;nbsp; Long Range Radio Transmitter&lt;/span&gt;" style="rounded=1;whiteSpace=wrap;html=1;" vertex="1" parent="1">
          <mxGeometry x="250" y="590" width="120" height="100" as="geometry" />
        </mxCell>
        <mxCell id="g3oiN53RCh4N_Ikx8a8z-6" value="&lt;font style=&quot;font-size: 20px;&quot;&gt;DAQ&lt;/font&gt;" style="text;html=1;align=center;verticalAlign=middle;whiteSpace=wrap;rounded=0;" vertex="1" parent="1">
          <mxGeometry x="210" y="320" width="60" height="30" as="geometry" />
        </mxCell>
        <mxCell id="g3oiN53RCh4N_Ikx8a8z-7" value="&lt;span style=&quot;font-size: 20px;&quot;&gt;Direct Sensor Inputs&lt;/span&gt;" style="rounded=1;whiteSpace=wrap;html=1;" vertex="1" parent="1">
          <mxGeometry x="110" y="350" width="120" height="100" as="geometry" />
        </mxCell>
        <mxCell id="g3oiN53RCh4N_Ikx8a8z-8" value="&lt;span style=&quot;font-size: 20px;&quot;&gt;USB Connectivity&lt;/span&gt;" style="rounded=1;whiteSpace=wrap;html=1;" vertex="1" parent="1">
          <mxGeometry x="250" y="350" width="120" height="100" as="geometry" />
        </mxCell>
        <mxCell id="g3oiN53RCh4N_Ikx8a8z-9" value="&lt;span style=&quot;font-size: 20px;&quot;&gt;XBEE&amp;nbsp; Long Range Radio Receiver&lt;/span&gt;" style="rounded=1;whiteSpace=wrap;html=1;" vertex="1" parent="1">
          <mxGeometry x="490" y="590" width="120" height="100" as="geometry" />
        </mxCell>
        <mxCell id="g3oiN53RCh4N_Ikx8a8z-10" value="" style="endArrow=none;dashed=1;html=1;rounded=0;exitX=1;exitY=0.5;exitDx=0;exitDy=0;entryX=0;entryY=0.5;entryDx=0;entryDy=0;strokeWidth=3;" edge="1" parent="1" source="g3oiN53RCh4N_Ikx8a8z-5" target="g3oiN53RCh4N_Ikx8a8z-9">
          <mxGeometry width="50" height="50" relative="1" as="geometry">
            <mxPoint x="420" y="800" as="sourcePoint" />
            <mxPoint x="470" y="750" as="targetPoint" />
          </mxGeometry>
        </mxCell>
        <mxCell id="g3oiN53RCh4N_Ikx8a8z-11" value="&lt;font style=&quot;font-size: 20px;&quot;&gt;PC&lt;/font&gt;" style="rounded=1;whiteSpace=wrap;html=1;" vertex="1" parent="1">
          <mxGeometry x="490" y="350" width="120" height="100" as="geometry" />
        </mxCell>
        <mxCell id="g3oiN53RCh4N_Ikx8a8z-12" value="" style="endArrow=none;html=1;rounded=0;exitX=0.5;exitY=0;exitDx=0;exitDy=0;entryX=0.5;entryY=1;entryDx=0;entryDy=0;strokeWidth=3;" edge="1" parent="1" source="g3oiN53RCh4N_Ikx8a8z-9" target="g3oiN53RCh4N_Ikx8a8z-11">
          <mxGeometry width="50" height="50" relative="1" as="geometry">
            <mxPoint x="550" y="550" as="sourcePoint" />
            <mxPoint x="600" y="500" as="targetPoint" />
          </mxGeometry>
        </mxCell>
        <mxCell id="g3oiN53RCh4N_Ikx8a8z-13" value="" style="endArrow=none;html=1;rounded=0;exitX=1;exitY=0.5;exitDx=0;exitDy=0;entryX=0;entryY=0.5;entryDx=0;entryDy=0;strokeWidth=3;" edge="1" parent="1" source="g3oiN53RCh4N_Ikx8a8z-8" target="g3oiN53RCh4N_Ikx8a8z-11">
          <mxGeometry width="50" height="50" relative="1" as="geometry">
            <mxPoint x="420" y="440" as="sourcePoint" />
            <mxPoint x="470" y="390" as="targetPoint" />
          </mxGeometry>
        </mxCell>
        <mxCell id="g3oiN53RCh4N_Ikx8a8z-15" value="&lt;span style=&quot;font-size: 20px;&quot;&gt;Sensor Breakouts&lt;/span&gt;" style="rounded=1;whiteSpace=wrap;html=1;" vertex="1" parent="1">
          <mxGeometry x="-90" y="590" width="120" height="100" as="geometry" />
        </mxCell>
        <mxCell id="g3oiN53RCh4N_Ikx8a8z-16" value="&lt;span style=&quot;font-size: 20px;&quot;&gt;Dashboard&lt;/span&gt;" style="rounded=1;whiteSpace=wrap;html=1;" vertex="1" parent="1">
          <mxGeometry x="-270" y="590" width="120" height="100" as="geometry" />
        </mxCell>
        <mxCell id="g3oiN53RCh4N_Ikx8a8z-17" value="" style="endArrow=none;html=1;rounded=0;entryX=0;entryY=0.5;entryDx=0;entryDy=0;exitX=0.5;exitY=0;exitDx=0;exitDy=0;strokeWidth=3;" edge="1" parent="1" source="g3oiN53RCh4N_Ikx8a8z-16" target="g3oiN53RCh4N_Ikx8a8z-4">
          <mxGeometry width="50" height="50" relative="1" as="geometry">
            <mxPoint x="-210" y="570" as="sourcePoint" />
            <mxPoint x="110" y="510" as="targetPoint" />
            <Array as="points">
              <mxPoint x="-210" y="520" />
            </Array>
          </mxGeometry>
        </mxCell>
        <mxCell id="g3oiN53RCh4N_Ikx8a8z-18" value="" style="endArrow=none;html=1;rounded=0;exitX=0.5;exitY=0;exitDx=0;exitDy=0;strokeWidth=3;" edge="1" parent="1" source="g3oiN53RCh4N_Ikx8a8z-15">
          <mxGeometry width="50" height="50" relative="1" as="geometry">
            <mxPoint x="-40" y="590" as="sourcePoint" />
            <mxPoint x="-30" y="520" as="targetPoint" />
          </mxGeometry>
        </mxCell>
        <mxCell id="g3oiN53RCh4N_Ikx8a8z-27" value="&lt;span style=&quot;font-size: 20px;&quot;&gt;Sensor&lt;/span&gt;" style="rounded=1;whiteSpace=wrap;html=1;" vertex="1" parent="1">
          <mxGeometry x="-90" y="350" width="120" height="100" as="geometry" />
        </mxCell>
        <mxCell id="g3oiN53RCh4N_Ikx8a8z-28" value="" style="endArrow=none;html=1;rounded=0;entryX=0;entryY=0.5;entryDx=0;entryDy=0;exitX=1;exitY=0.5;exitDx=0;exitDy=0;strokeWidth=3;" edge="1" parent="1" source="g3oiN53RCh4N_Ikx8a8z-27" target="g3oiN53RCh4N_Ikx8a8z-7">
          <mxGeometry width="50" height="50" relative="1" as="geometry">
            <mxPoint x="10" y="300" as="sourcePoint" />
            <mxPoint x="60" y="250" as="targetPoint" />
          </mxGeometry>
        </mxCell>
      </root>
    </mxGraphModel>
  </diagram>
</mxfile>
